<svg width="14" height="17" viewBox="0 0 14 17" fill="none" xmlns="http://www.w3.org/2000/svg" >
    <path d="M7.125 1.475C7.79251 1.475 8.44503 1.67294 9.00005 2.04379C9.55507 2.41464 9.98765 2.94174 10.2431 3.55844C10.4985 4.17514 10.5654 4.85374 10.4352 5.50843C10.3049 6.16312 9.98349 6.76448 9.51149 7.23649C9.03948 7.70849 8.43812 8.02993 7.78343 8.16015C7.12874 8.29038 6.45014 8.22354 5.83344 7.96809C5.21674 7.71265 4.68964 7.28007 4.31879 6.72505C3.94794 6.17003 3.75 5.51751 3.75 4.85C3.75 3.95489 4.10558 3.09645 4.73851 2.46351C5.37145 1.83058 6.22989 1.475 7.125 1.475ZM7.125 0.125C6.19048 0.125 5.27695 0.402116 4.49993 0.921306C3.72291 1.4405 3.11729 2.17844 2.75967 3.04182C2.40205 3.9052 2.30847 4.85524 2.49079 5.7718C2.67311 6.68836 3.12312 7.53028 3.78392 8.19108C4.44472 8.85188 5.28664 9.3019 6.2032 9.48421C7.11976 9.66653 8.0698 9.57296 8.93318 9.21533C9.79656 8.85771 10.5345 8.25209 11.0537 7.47507C11.5729 6.69805 11.85 5.78452 11.85 4.85C11.85 3.59685 11.3522 2.39503 10.4661 1.50892C9.57997 0.622811 8.37815 0.125 7.125 0.125ZM13.875 19.025H12.525V15.65C12.525 15.2068 12.4377 14.7679 12.2681 14.3584C12.0985 13.949 11.8499 13.5769 11.5365 13.2635C11.2231 12.9501 10.851 12.7015 10.4416 12.5319C10.0321 12.3623 9.59321 12.275 9.15 12.275H5.1C4.20489 12.275 3.34645 12.6306 2.71351 13.2635C2.08058 13.8965 1.725 14.7549 1.725 15.65V19.025H0.375V15.65C0.375 14.3969 0.872811 13.195 1.75892 12.3089C2.64503 11.4228 3.84685 10.925 5.1 10.925H9.15C10.4031 10.925 11.605 11.4228 12.4911 12.3089C13.3772 13.195 13.875 14.3969 13.875 15.65V19.025Z" fill="#757575"/>
</svg>
    